<?xml version="1.0" encoding="utf-8"?>
<!-- Generator: Adobe Illustrator 25.2.0, SVG Export Plug-In . SVG Version: 6.00 Build 0)  -->
<svg version="1.1" id="Layer_1" xmlns="http://www.w3.org/2000/svg" xmlns:xlink="http://www.w3.org/1999/xlink" x="0px" y="0px"
	 viewBox="0 0 2000 2000" style="enable-background:new 0 0 2000 2000;" xml:space="preserve">
<g>
	<g>
		<path style="fill:#FFFFFF;" d="M1000.17,1762.25l-528.28-528.28l528.28-528.28l528.28,528.28L1000.17,1762.25z M528.45,1233.96
			l471.72,471.72l471.72-471.72l-471.72-471.72L528.45,1233.96z"/>
	</g>
	<g>
		<path style="fill:#FFFFFF;" d="M999.83,1294.32L471.55,766.04l528.28-528.28l528.28,528.28L999.83,1294.32z M528.12,766.04
			l471.72,471.72l471.72-471.72L999.83,294.32L528.12,766.04z"/>
	</g>
	<g>
		<path style="fill:#FFFFFF;" d="M999.83,1530.1l-528.28-528.28l528.28-528.28l528.28,528.28L999.83,1530.1z M528.12,1001.82
			l471.72,471.72l471.72-471.72L999.83,530.1L528.12,1001.82z"/>
	</g>
	<g>
		<circle style="fill:#FFFFFF;" cx="1000" cy="1000" r="150"/>
	</g>
</g>
</svg>
